name C:\Users\sachi\predsim_tutorial_model\Results\Case_6\load_motion_data\GRF_extend.mot
datacolumns 19
datarows 10
range 7.62078152 7.80078152
endheader 
time	r_ground_force_vx	r_ground_force_vy	r_ground_force_vz	r_ground_force_px	r_ground_force_py	r_ground_force_pz	l_ground_force_vx	l_ground_force_vy	l_ground_force_vz	l_ground_force_px	l_ground_force_py	l_ground_force_pz	r_ground_torque_x	r_ground_torque_y	r_ground_torque_z	l_ground_torque_x	l_ground_torque_y	l_ground_torque_z	
          7.62078152	         65.53788912	        366.43427325	         -3.16752561	          0.41943027	          0.00000000	          0.06754784	        -12.85731365	        295.60979793	          6.16924540	          0.93902393	          0.00000000	         -0.04320015	          0.00000000	          3.06323785	          0.00000000	          0.00000000	          0.00017257	          0.00000000	
          7.64078152	         43.51232386	        270.17289935	          7.68110501	          0.42598429	          0.00000000	          0.06681417	        -76.11544213	        566.11536318	         10.89142182	          0.94075945	          0.00000000	         -0.04311479	          0.00000000	          1.97626017	          0.00000000	          0.00000000	          0.11135328	          0.00000000	
          7.66078152	         27.17668156	        166.95112124	         20.22149054	          0.43035401	          0.00000000	          0.06075524	        -98.94490366	        705.10991519	         12.02590922	          0.94883741	          0.00000000	         -0.04574661	          0.00000000	          0.99925056	          0.00000000	          0.00000000	          1.05903815	          0.00000000	
          7.68078152	         -9.06103062	         51.53774963	         11.64723129	          0.43923113	          0.00000000	          0.04051554	       -100.40769226	        746.76324659	         15.40073207	          0.95860434	          0.00000000	         -0.04888042	          0.00000000	          0.13600377	          0.00000000	          0.00000000	          1.49111909	          0.00000000	
          7.70078152	          0.00000000	          0.00000000	          0.00000000	          0.00000000	          0.00000000	          0.00000000	        -82.00065416	        724.73973362	         13.37948517	          0.96772896	          0.00000000	         -0.04980798	          0.00000000	          0.00000000	          0.00000000	          0.00000000	          2.31468791	          0.00000000	
          7.72078152	          0.00000000	          0.00000000	          0.00000000	          0.00000000	          0.00000000	          0.00000000	        -66.28241366	        680.16180364	         12.72867820	          0.97886098	          0.00000000	         -0.04860027	          0.00000000	          0.00000000	          0.00000000	          0.00000000	          3.68153402	          0.00000000	
          7.74078152	          0.00000000	          0.00000000	          0.00000000	          0.00000000	          0.00000000	          0.00000000	        -50.09947797	        626.31754073	         13.05560124	          0.98874062	          0.00000000	         -0.04799159	          0.00000000	          0.00000000	          0.00000000	          0.00000000	          4.71146504	          0.00000000	
          7.76078152	          0.00000000	          0.00000000	          0.00000000	          0.00000000	          0.00000000	          0.00000000	        -35.23293694	        580.43049984	         14.43446662	          0.99780922	          0.00000000	         -0.04786465	          0.00000000	          0.00000000	          0.00000000	          0.00000000	          5.16687370	          0.00000000	
          7.78078152	          0.00000000	          0.00000000	          0.00000000	          0.00000000	          0.00000000	          0.00000000	        -24.95602614	        552.04438978	         16.87305009	          1.00805773	          0.00000000	         -0.04787102	          0.00000000	          0.00000000	          0.00000000	          0.00000000	          5.27249011	          0.00000000	
          7.80078152	          0.00000000	          0.00000000	          0.00000000	          0.00000000	          0.00000000	          0.00000000	        -18.81723627	        539.73859769	         18.68655069	          1.01974006	          0.00000000	         -0.04776024	          0.00000000	          0.00000000	          0.00000000	          0.00000000	          4.81511322	          0.00000000	
